<svg width="350" height="350" viewBox="0 0 350 350" fill="none" xmlns="http://www.w3.org/2000/svg">

    <g id="bitcoin">
        <path d="M12.1324 25.2308V27.5385C12.1324 27.7932 12.3382 28 12.5919 28H14.4301C14.552 28 14.6689 27.9514 14.7551 27.8648C14.8413 27.7783 14.8897 27.6609 14.8897 27.5385V25.2308H15.8088V27.5385C15.8088 27.7932 16.0147 28 16.2684 28H18.1066C18.2285 28 18.3454 27.9514 18.4316 27.8648C18.5178 27.7783 18.5662 27.6609 18.5662 27.5385V25.2308H18.7206C22.3824 25.2308 25 23.3237 25 20.0246C25 17.2517 23.1489 15.736 20.9816 15.52V15.3575C22.7647 14.9108 24.0754 13.5594 24.0754 11.3145C24.0754 8.48615 21.9614 6.76923 18.7353 6.76923H18.5662V4.46154C18.5662 4.33913 18.5178 4.22174 18.4316 4.13518C18.3454 4.04863 18.2285 4 18.1066 4H16.2684C16.1465 4 16.0296 4.04863 15.9434 4.13518C15.8572 4.22174 15.8088 4.33913 15.8088 4.46154V6.76923H14.7555V4.46154C14.7555 4.33913 14.7071 4.22174 14.6209 4.13518C14.5347 4.04863 14.4178 4 14.296 4H12.5919C12.47 4 12.3531 4.04863 12.267 4.13518C12.1808 4.22174 12.1324 4.33913 12.1324 4.46154V6.76923L8.45956 6.78954C8.33768 6.78954 8.22079 6.83816 8.1346 6.92472C8.04842 7.01128 8 7.12867 8 7.25108V9.07692C8 9.32985 8.20221 9.53846 8.45588 9.53846L9.84375 9.52923C10.2078 9.53167 10.5561 9.67862 10.8127 9.93802C11.0693 10.1974 11.2132 10.5482 11.2132 10.9138V21.0769C11.2132 21.4441 11.068 21.7963 10.8094 22.056C10.5509 22.3157 10.2002 22.4615 9.83456 22.4615L8.45956 22.4818C8.33768 22.4818 8.22079 22.5305 8.1346 22.617C8.04842 22.7036 8 22.821 8 22.9434V24.7895C8 25.0443 8.20588 25.2511 8.45956 25.2511L12.1324 25.2308ZM14.7555 9.51446H17.9154C19.5809 9.51446 20.5588 10.4338 20.5588 11.9366C20.5588 13.5446 19.5018 14.4511 17.1085 14.4511H14.7555V9.51446ZM14.7555 16.9932H18.1379C20.2279 16.9932 21.3658 18.064 21.3658 19.8068C21.3658 21.5662 20.2151 22.4837 17.3989 22.4837H14.7555V16.9951V16.9932Z"
              fill="#ABB2BF"/>
    </g>


    <g id="browser">
        <path fill-rule="evenodd" clip-rule="evenodd"
              d="M11.5 0C5.152 0 0 5.152 0 11.5C0 17.848 5.152 23 11.5 23C17.8365 23 23 17.848 23 11.5C23 5.152 17.8365 0 11.5 0ZM19.0958 5.3015C20.5115 7.02546 21.2951 9.18167 21.3167 11.4123C20.9918 11.3505 17.7488 10.6892 14.4814 11.1004C14.4066 10.9394 14.3434 10.764 14.2686 10.5901C14.0688 10.1157 13.8446 9.62981 13.6203 9.16694C17.2371 7.69637 18.8844 5.57606 19.0972 5.30006L19.0958 5.3015ZM11.5 1.69625C13.9941 1.69625 16.2768 2.63063 18.0119 4.16587C17.8365 4.416 16.3516 6.39831 12.8599 7.70787C11.2499 4.75238 9.46737 2.33162 9.19281 1.95788C9.94909 1.78129 10.7234 1.69349 11.5 1.69625ZM7.32119 2.61913C8.63747 4.44338 9.85348 6.33793 10.9638 8.29438C6.37387 9.51625 2.32012 9.49181 1.88312 9.49181C2.19917 8.00504 2.85438 6.61137 3.79766 5.41949C4.74094 4.22761 5.9468 3.26973 7.32119 2.62056V2.61913ZM1.67181 11.5144V11.2125C2.09588 11.2269 6.86119 11.2887 11.7631 9.81669C12.0491 10.3644 12.3108 10.9264 12.5609 11.4871L12.1728 11.5992C7.10988 13.2336 4.416 17.6985 4.19031 18.0737C2.56856 16.2734 1.67131 13.936 1.67181 11.5129V11.5144ZM11.5 21.3282C9.31723 21.3316 7.19639 20.6027 5.47687 19.2582C5.64937 18.8959 7.64606 15.0549 13.1833 13.1215C13.2092 13.1086 13.2207 13.1086 13.2466 13.0971C14.1801 15.5068 14.8814 18.0002 15.341 20.5433C14.1277 21.0646 12.8205 21.3318 11.5 21.3282ZM16.9769 19.6449C16.8763 19.0454 16.3516 16.1776 15.0679 12.6471C18.1484 12.1613 20.8423 12.9591 21.1787 13.0712C20.9692 14.3975 20.4876 15.6662 19.7643 16.7974C19.0409 17.9287 18.0914 18.8982 16.9754 19.6449H16.9769Z"
              fill="#ABB2BF"/>
    </g>

    <g id="card">
        <path d="M5 10.6667C5 9.95942 5.28973 9.28115 5.80546 8.78105C6.32118 8.28095 7.02065 8 7.75 8H24.25C24.9793 8 25.6788 8.28095 26.1945 8.78105C26.7103 9.28115 27 9.95942 27 10.6667V17.3333H5V10.6667ZM20.8125 12C20.6302 12 20.4553 12.0702 20.3264 12.1953C20.1974 12.3203 20.125 12.4899 20.125 12.6667V14C20.125 14.1768 20.1974 14.3464 20.3264 14.4714C20.4553 14.5964 20.6302 14.6667 20.8125 14.6667H23.5625C23.7448 14.6667 23.9197 14.5964 24.0486 14.4714C24.1776 14.3464 24.25 14.1768 24.25 14V12.6667C24.25 12.4899 24.1776 12.3203 24.0486 12.1953C23.9197 12.0702 23.7448 12 23.5625 12H20.8125ZM5 20V21.3333C5 22.0406 5.28973 22.7189 5.80546 23.219C6.32118 23.719 7.02065 24 7.75 24H24.25C24.9793 24 25.6788 23.719 26.1945 23.219C26.7103 22.7189 27 22.0406 27 21.3333V20H5Z"
              fill="#ABB2BF"/>
    </g>
    >

    <g id="discord">
        <path d="M24.1641 7.65906C22.543 6.87826 20.8325 6.32099 19.0751 6.00114C19.0592 5.99832 19.0428 6.00076 19.0283 6.0081C19.0137 6.01544 19.0017 6.02733 18.9938 6.04214C18.7735 6.45211 18.5298 6.98835 18.3595 7.40816C16.4651 7.10643 14.5383 7.10643 12.6439 7.40816C12.4539 6.9405 12.239 6.48443 12.0002 6.04214C11.9922 6.02749 11.9801 6.01574 11.9656 6.00842C11.9511 6.0011 11.9348 5.99856 11.9189 6.00114C10.1611 6.31928 8.45021 6.87684 6.82991 7.65906C6.81605 7.66461 6.80445 7.67504 6.7971 7.68858C3.55651 12.7706 2.66745 17.7279 3.10339 22.623C3.10495 22.6459 3.11901 22.6689 3.1362 22.6836C5.02325 24.1507 7.13396 25.2708 9.37832 25.9962C9.39417 26.0014 9.4112 26.0013 9.42693 25.9957C9.44267 25.99 9.45629 25.9793 9.46582 25.965C9.94707 25.2763 10.3752 24.5498 10.7439 23.7856C10.7516 23.7699 10.7543 23.752 10.7514 23.7345C10.7486 23.7171 10.7405 23.7011 10.7283 23.6889C10.7202 23.6809 10.7107 23.6747 10.7002 23.6708C10.027 23.3993 9.37503 23.0731 8.7502 22.6951C8.73275 22.6847 8.71977 22.6677 8.71395 22.6476C8.70814 22.6274 8.70993 22.6057 8.71895 22.5869C8.72427 22.5747 8.73231 22.564 8.74239 22.5557C8.87364 22.4524 9.00489 22.3442 9.12989 22.236C9.14093 22.2266 9.15418 22.2206 9.16821 22.2186C9.18225 22.2166 9.19655 22.2186 9.20957 22.2245C13.3017 24.1858 17.7314 24.1858 21.7735 22.2245C21.787 22.2183 21.8018 22.2162 21.8164 22.2182C21.831 22.2202 21.8448 22.2264 21.8563 22.236C21.9813 22.3442 22.1126 22.4524 22.2438 22.5557C22.2544 22.5639 22.263 22.5747 22.2687 22.5872C22.2744 22.5996 22.277 22.6134 22.2764 22.6272C22.2758 22.641 22.2719 22.6544 22.2651 22.6663C22.2584 22.6781 22.2489 22.688 22.2376 22.6951C21.6142 23.0765 20.9614 23.4024 20.286 23.6692C20.2752 23.6733 20.2655 23.6798 20.2574 23.6883C20.2493 23.6968 20.243 23.7071 20.2391 23.7184C20.2355 23.7294 20.2341 23.741 20.2349 23.7525C20.2357 23.7641 20.2387 23.7754 20.2438 23.7856C20.6188 24.5482 21.0485 25.2763 21.5204 25.965C21.5299 25.9793 21.5435 25.99 21.5593 25.9957C21.575 26.0013 21.592 26.0014 21.6079 25.9962C23.856 25.2731 25.9701 24.1528 27.8594 22.6836C27.8688 22.6768 27.8767 22.6677 27.8824 22.6572C27.8881 22.6467 27.8914 22.635 27.8922 22.623C28.4141 16.9637 27.0188 12.0474 24.1954 7.69022C24.1925 7.68302 24.1883 7.67653 24.1829 7.67116C24.1775 7.66579 24.1711 7.66167 24.1641 7.65906ZM11.3549 19.6417C10.1221 19.6417 9.10801 18.4544 9.10801 16.9982C9.10801 15.5403 10.1033 14.353 11.3549 14.353C12.6158 14.353 13.6205 15.5502 13.6017 16.9982C13.6017 18.4544 12.6064 19.6417 11.3549 19.6417ZM19.661 19.6417C18.4298 19.6417 17.4142 18.4544 17.4142 16.9982C17.4142 15.5403 18.4095 14.353 19.661 14.353C20.922 14.353 21.9282 15.5502 21.9079 16.9982C21.9079 18.4544 20.922 19.6417 19.661 19.6417Z"
              fill="#ABB2BF"/>
    </g>

    <g id="figma">
        <path d="M7 10C7 9.11594 7.36875 8.2681 8.02513 7.64298C8.6815 7.01786 9.57174 6.66667 10.5 6.66667C11.4283 6.66667 12.3185 7.01786 12.9749 7.64298C13.6313 8.2681 14 9.11594 14 10C14 10.8841 13.6313 11.7319 12.9749 12.357C12.3185 12.9821 11.4283 13.3333 10.5 13.3333C9.57174 13.3333 8.6815 12.9821 8.02513 12.357C7.36875 11.7319 7 10.8841 7 10ZM0 16.6667C0 15.7826 0.368749 14.9348 1.02513 14.3096C1.6815 13.6845 2.57174 13.3333 3.5 13.3333H7V16.6667C7 17.5507 6.63125 18.3986 5.97487 19.0237C5.3185 19.6488 4.42826 20 3.5 20C2.57174 20 1.6815 19.6488 1.02513 19.0237C0.368749 18.3986 0 17.5507 0 16.6667ZM7 0V6.66667H10.5C11.4283 6.66667 12.3185 6.31548 12.9749 5.69036C13.6313 5.06523 14 4.21739 14 3.33333C14 2.44928 13.6313 1.60143 12.9749 0.976311C12.3185 0.35119 11.4283 0 10.5 0L7 0ZM0 3.33333C0 4.21739 0.368749 5.06523 1.02513 5.69036C1.6815 6.31548 2.57174 6.66667 3.5 6.66667H7V0H3.5C2.57174 0 1.6815 0.35119 1.02513 0.976311C0.368749 1.60143 0 2.44928 0 3.33333ZM0 10C0 10.8841 0.368749 11.7319 1.02513 12.357C1.6815 12.9821 2.57174 13.3333 3.5 13.3333H7V6.66667H3.5C2.57174 6.66667 1.6815 7.01786 1.02513 7.64298C0.368749 8.2681 0 9.11594 0 10Z"
              fill="#ABB2BF"/>
    </g>

    <g id="git">
        <path d="M10.5 0C4.69875 0 0 4.58819 0 10.2529C0 14.7899 3.00562 18.6219 7.17937 19.9804C7.70437 20.0701 7.90125 19.7625 7.90125 19.4934C7.90125 19.2499 7.88813 18.4425 7.88813 17.5838C5.25 18.058 4.5675 16.9558 4.3575 16.3791C4.23938 16.0843 3.7275 15.1743 3.28125 14.9308C2.91375 14.7386 2.38875 14.2644 3.26813 14.2516C4.095 14.2388 4.68563 14.9949 4.8825 15.3025C5.8275 16.8533 7.33688 16.4175 7.94063 16.1484C8.0325 15.4819 8.30812 15.0334 8.61 14.777C6.27375 14.5207 3.8325 13.6364 3.8325 9.71466C3.8325 8.59965 4.23938 7.67689 4.90875 6.95918C4.80375 6.70286 4.43625 5.65193 5.01375 4.24215C5.01375 4.24215 5.89313 3.97301 7.90125 5.29308C8.74125 5.06239 9.63375 4.94704 10.5263 4.94704C11.4188 4.94704 12.3113 5.06239 13.1513 5.29308C15.1594 3.9602 16.0387 4.24215 16.0387 4.24215C16.6163 5.65193 16.2488 6.70286 16.1438 6.95918C16.8131 7.67689 17.22 8.58684 17.22 9.71466C17.22 13.6492 14.7656 14.5207 12.4294 14.777C12.81 15.0975 13.1381 15.7126 13.1381 16.6738C13.1381 18.0452 13.125 19.1474 13.125 19.4934C13.125 19.7625 13.3219 20.0829 13.8469 19.9804C15.9314 19.2935 17.7428 17.9854 19.026 16.2403C20.3092 14.4953 20.9996 12.4012 21 10.2529C21 4.58819 16.3013 0 10.5 0Z"
              fill="#ABB2BF"/>
    </g>

    <g id="message">
        <path d="M0.071875 2.20292C0.216801 1.57709 0.573067 1.01832 1.08232 0.618104C1.59158 0.217889 2.22365 -4.32004e-05 2.875 6.42336e-09H20.125C20.7764 -4.32004e-05 21.4084 0.217889 21.9177 0.618104C22.4269 1.01832 22.7832 1.57709 22.9281 2.20292L11.5 9.0865L0.071875 2.20292ZM0 3.82075V13.8847L8.34181 8.84425L0 3.82075ZM9.71894 9.67583L0.274563 15.3807C0.507907 15.8657 0.876195 16.2753 1.33656 16.5619C1.79693 16.8486 2.33044 17.0005 2.875 17H20.125C20.6695 17.0001 21.2028 16.8479 21.6629 16.561C22.123 16.274 22.491 15.8643 22.724 15.3793L13.2796 9.67442L11.5 10.7468L9.71894 9.67442V9.67583ZM14.6582 8.84567L23 13.8847V3.82075L14.6582 8.84425V8.84567Z"
              fill="#ABB2BF"/>
    </g>

    <g id="purpleLogo">
        <mask id="path-1-inside-1_109484_116" fill="white">
            <path d="M26 27H13V40H26V53H0V14H26V27Z"/>
        </mask>
        <path d="M26 27V28H27V27H26ZM13 27V26H12V27H13ZM13 40H12V41H13V40ZM26 40H27V39H26V40ZM26 53V54H27V53H26ZM0 53H-1V54H0V53ZM0 14V13H-1V14H0ZM26 14H27V13H26V14ZM26 27V26H13V27V28H26V27ZM13 27H12V40H13H14V27H13ZM13 40V41H26V40V39H13V40ZM26 40H25V53H26H27V40H26ZM26 53V52H0V53V54H26V53ZM0 53H1V14H0H-1V53H0ZM0 14V15H26V14V13H0V14ZM26 14H25V27H26H27V14H26Z"
              fill="#C778DD" mask="url(#path-1-inside-1_109484_116)"/>
        <mask id="path-3-outside-2_109484_116" maskUnits="userSpaceOnUse" x="25" y="0" width="28" height="41"
              fill="black">
            <rect fill="white" x="25" width="28" height="41"/>
            <path d="M52 40H26V27H39V14H26V1H52V40Z"/>
        </mask>
        <path d="M52 40V41H53V40H52ZM26 40H25V41H26V40ZM26 27V26H25V27H26ZM39 27V28H40V27H39ZM39 14H40V13H39V14ZM26 14H25V15H26V14ZM26 1V0H25V1H26ZM52 1H53V0H52V1ZM52 40V39H26V40V41H52V40ZM26 40H27V27H26H25V40H26ZM26 27V28H39V27V26H26V27ZM39 27H40V14H39H38V27H39ZM39 14V13H26V14V15H39V14ZM26 14H27V1H26H25V14H26ZM26 1V2H52V1V0H26V1ZM52 1H51V40H52H53V1H52Z"
              fill="#C778DD" mask="url(#path-3-outside-2_109484_116)"/>
    </g>

    <g id="twitter">
        <path d="M7.22487 19C15.9045 19 20.6526 11.6883 20.6526 5.35873C20.6526 5.15412 20.6526 4.9466 20.6439 4.74199C21.5683 4.06166 22.3661 3.21937 23 2.25459C22.1365 2.64165 21.2215 2.89676 20.2846 3.01162C21.2715 2.41189 22.0106 1.46827 22.3646 0.356148C21.4374 0.914607 20.4226 1.30664 19.3646 1.51509C18.6533 0.744931 17.712 0.234726 16.6866 0.0635014C15.6612 -0.107724 14.6089 0.0695869 13.6927 0.567968C12.7764 1.06635 12.0474 1.85799 11.6185 2.82026C11.1896 3.78253 11.0848 4.86173 11.3203 5.8907C9.444 5.79505 7.60842 5.29949 5.93262 4.43617C4.25682 3.57285 2.77823 2.36104 1.59275 0.879351C0.990926 1.93611 0.807262 3.18612 1.07905 4.37555C1.35085 5.56499 2.05772 6.60467 3.05612 7.28347C2.30796 7.25763 1.57625 7.05338 0.92 6.68719V6.75296C0.92129 7.85999 1.2985 8.93261 1.98788 9.78952C2.67726 10.6464 3.63651 11.2351 4.7035 11.4559C4.2985 11.5694 3.88014 11.6259 3.46006 11.624C3.16391 11.6249 2.86836 11.597 2.57744 11.5407C2.87901 12.4937 3.46621 13.3269 4.25679 13.9236C5.04738 14.5203 6.00176 14.8507 6.98625 14.8685C5.3138 16.2039 3.24789 16.9282 1.12125 16.9247C0.746524 16.9263 0.372058 16.9044 0 16.859C2.15843 18.258 4.66512 19.0008 7.22487 19Z"
              fill="#ABB2BF"/>
    </g>

    <g id="whiteLogo">
        <path d="M26 26H13V39H26V52H0V13H26V26ZM52 39H26V26H39V13H26V0H52V39Z" fill="white"/>
    </g>

    <g id="iconsGroup">
        <circle cx="2" cy="40" r="2" fill="#ABB2BF"/>
        <circle cx="16.75" cy="40" r="2" fill="#ABB2BF"/>
        <circle cx="31.5" cy="40" r="2" fill="#ABB2BF"/>
        <circle cx="46.25" cy="40" r="2" fill="#ABB2BF"/>
        <circle cx="61" cy="40" r="2" fill="#ABB2BF"/>
        <circle cx="2" cy="54.75" r="2" fill="#ABB2BF"/>
        <circle cx="16.75" cy="54.75" r="2" fill="#ABB2BF"/>
        <circle cx="31.5" cy="54.75" r="2" fill="#ABB2BF"/>
        <circle cx="46.25" cy="54.75" r="2" fill="#ABB2BF"/>
        <circle cx="61" cy="54.75" r="2" fill="#ABB2BF"/>
        <circle cx="2" cy="69.5" r="2" fill="#ABB2BF"/>
        <circle cx="16.75" cy="69.5" r="2" fill="#ABB2BF"/>
        <circle cx="31.5" cy="69.5" r="2" fill="#ABB2BF"/>
        <circle cx="46.25" cy="69.5" r="2" fill="#ABB2BF"/>
        <circle cx="61" cy="69.5" r="2" fill="#ABB2BF"/>
        <circle cx="2" cy="84.25" r="2" fill="#ABB2BF"/>
        <circle cx="16.75" cy="84.25" r="2" fill="#ABB2BF"/>
        <circle cx="31.5" cy="84.25" r="2" fill="#ABB2BF"/>
        <circle cx="46.25" cy="84.25" r="2" fill="#ABB2BF"/>
        <circle cx="61" cy="84.25" r="2" fill="#ABB2BF"/>
        <circle cx="2" cy="99" r="2" fill="#ABB2BF"/>
        <circle cx="16.75" cy="99" r="2" fill="#ABB2BF"/>
        <circle cx="31.5" cy="99" r="2" fill="#ABB2BF"/>
        <circle cx="46.25" cy="99" r="2" fill="#ABB2BF"/>
        <circle cx="61" cy="99" r="2" fill="#ABB2BF"/>
        <circle cx="179" cy="145" r="2" fill="#ABB2BF"/>
        <circle cx="193.75" cy="145" r="2" fill="#ABB2BF"/>
        <circle cx="208.5" cy="145" r="2" fill="#ABB2BF"/>
        <circle cx="223.25" cy="145" r="2" fill="#ABB2BF"/>
        <circle cx="238" cy="145" r="2" fill="#ABB2BF"/>
        <circle cx="179" cy="159.75" r="2" fill="#ABB2BF"/>
        <circle cx="193.75" cy="159.75" r="2" fill="#ABB2BF"/>
        <circle cx="208.5" cy="159.75" r="2" fill="#ABB2BF"/>
        <circle cx="223.25" cy="159.75" r="2" fill="#ABB2BF"/>
        <circle cx="238" cy="159.75" r="2" fill="#ABB2BF"/>
        <circle cx="179" cy="174.5" r="2" fill="#ABB2BF"/>
        <circle cx="193.75" cy="174.5" r="2" fill="#ABB2BF"/>
        <circle cx="208.5" cy="174.5" r="2" fill="#ABB2BF"/>
        <circle cx="223.25" cy="174.5" r="2" fill="#ABB2BF"/>
        <circle cx="238" cy="174.5" r="2" fill="#ABB2BF"/>
        <circle cx="179" cy="189.25" r="2" fill="#ABB2BF"/>
        <circle cx="193.75" cy="189.25" r="2" fill="#ABB2BF"/>
        <circle cx="208.5" cy="189.25" r="2" fill="#ABB2BF"/>
        <circle cx="223.25" cy="189.25" r="2" fill="#ABB2BF"/>
        <circle cx="238" cy="189.25" r="2" fill="#ABB2BF"/>
        <circle cx="179" cy="204" r="2" fill="#ABB2BF"/>
        <circle cx="193.75" cy="204" r="2" fill="#ABB2BF"/>
        <circle cx="208.5" cy="204" r="2" fill="#ABB2BF"/>
        <circle cx="223.25" cy="204" r="2" fill="#ABB2BF"/>
        <circle cx="238" cy="204" r="2" fill="#ABB2BF"/>
        <rect x="297.5" y="193.5" width="51" height="51" stroke="#ABB2BF"/>
        <rect x="227.5" y="0.5" width="85" height="85" stroke="#ABB2BF"/>
        <mask id="path-53-inside-1_109484_332" fill="white">
            <path d="M128 253.75H71.5V225.5H99.75V197.25H71.5V169H128V253.75Z"/>
        </mask>
        <path d="M128 253.75V254.75H129V253.75H128ZM71.5 253.75H70.5V254.75H71.5V253.75ZM71.5 225.5V224.5H70.5V225.5H71.5ZM99.75 225.5V226.5H100.75V225.5H99.75ZM99.75 197.25H100.75V196.25H99.75V197.25ZM71.5 197.25H70.5V198.25H71.5V197.25ZM71.5 169V168H70.5V169H71.5ZM128 169H129V168H128V169ZM128 253.75V252.75H71.5V253.75V254.75H128V253.75ZM71.5 253.75H72.5V225.5H71.5H70.5V253.75H71.5ZM71.5 225.5V226.5H99.75V225.5V224.5H71.5V225.5ZM99.75 225.5H100.75V197.25H99.75H98.75V225.5H99.75ZM99.75 197.25V196.25H71.5V197.25V198.25H99.75V197.25ZM71.5 197.25H72.5V169H71.5H70.5V197.25H71.5ZM71.5 169V170H128V169V168H71.5V169ZM128 169H127V253.75H128H129V169H128Z" fill="#C778DD" mask="url(#path-53-inside-1_109484_332)"/>
        <mask id="path-55-outside-2_109484_332" maskUnits="userSpaceOnUse" x="14" y="196.25" width="59" height="87" fill="black">
            <rect fill="white" x="14" y="196.25" width="59" height="87"/>
            <path fill-rule="evenodd" clip-rule="evenodd" d="M15 197.25H43.25H71.5V225.5H43.25V253.75H71.5V282H43.25H15V253.75V225.5V197.25Z"/>
        </mask>
        <path d="M15 197.25V196.25H14V197.25H15ZM71.5 197.25H72.5V196.25H71.5V197.25ZM71.5 225.5V226.5H72.5V225.5H71.5ZM43.25 225.5V224.5H42.25V225.5H43.25ZM43.25 253.75H42.25V254.75H43.25V253.75ZM71.5 253.75H72.5V252.75H71.5V253.75ZM71.5 282V283H72.5V282H71.5ZM15 282H14V283H15V282ZM43.25 197.25V196.25H15V197.25V198.25H43.25V197.25ZM71.5 197.25V196.25H43.25V197.25V198.25H71.5V197.25ZM71.5 225.5H72.5V197.25H71.5H70.5V225.5H71.5ZM43.25 225.5V226.5H71.5V225.5V224.5H43.25V225.5ZM43.25 253.75H44.25V225.5H43.25H42.25V253.75H43.25ZM43.25 253.75V254.75H71.5V253.75V252.75H43.25V253.75ZM71.5 253.75H70.5V282H71.5H72.5V253.75H71.5ZM71.5 282V281H43.25V282V283H71.5V282ZM15 282V283H43.25V282V281H15V282ZM15 253.75H14V282H15H16V253.75H15ZM15 225.5H14V253.75H15H16V225.5H15ZM15 197.25H14V225.5H15H16V197.25H15Z" fill="#C778DD" mask="url(#path-55-outside-2_109484_332)"/>
    </g>

    <g id="dots">
        <circle cx="2" cy="2" r="2" fill="#ABB2BF"/>
        <circle cx="22" cy="2" r="2" fill="#ABB2BF"/>
        <circle cx="42" cy="2" r="2" fill="#ABB2BF"/>
        <circle cx="62" cy="2" r="2" fill="#ABB2BF"/>
        <circle cx="82" cy="2" r="2" fill="#ABB2BF"/>
        <circle cx="2" cy="22" r="2" fill="#ABB2BF"/>
        <circle cx="22" cy="22" r="2" fill="#ABB2BF"/>
        <circle cx="42" cy="22" r="2" fill="#ABB2BF"/>
        <circle cx="62" cy="22" r="2" fill="#ABB2BF"/>
        <circle cx="82" cy="22" r="2" fill="#ABB2BF"/>
        <circle cx="2" cy="42" r="2" fill="#ABB2BF"/>
        <circle cx="22" cy="42" r="2" fill="#ABB2BF"/>
        <circle cx="42" cy="42" r="2" fill="#ABB2BF"/>
        <circle cx="62" cy="42" r="2" fill="#ABB2BF"/>
        <circle cx="82" cy="42" r="2" fill="#ABB2BF"/>
        <circle cx="2" cy="62" r="2" fill="#ABB2BF"/>
        <circle cx="22" cy="62" r="2" fill="#ABB2BF"/>
        <circle cx="42" cy="62" r="2" fill="#ABB2BF"/>
        <circle cx="62" cy="62" r="2" fill="#ABB2BF"/>
        <circle cx="82" cy="62" r="2" fill="#ABB2BF"/>
        <circle cx="2" cy="82" r="2" fill="#ABB2BF"/>
        <circle cx="22" cy="82" r="2" fill="#ABB2BF"/>
        <circle cx="42" cy="82" r="2" fill="#ABB2BF"/>
        <circle cx="62" cy="82" r="2" fill="#ABB2BF"/>
        <circle cx="82" cy="82" r="2" fill="#ABB2BF"/>
    </g>

    <g id="burger">
        <rect y="5" width="24" height="2" fill="#D9D9D9"/>
        <rect x="9" y="12" width="15" height="2" fill="#D9D9D9"/>
    </g>

    <g id="rectangle">
        <rect x="0.5" y="0.5" width="155" height="155" stroke="#ABB2BF"/>
    </g>

    <g id="verticalDots">
        <circle cx="2" cy="2" r="2" fill="#ABB2BF"/>
        <circle cx="6" cy="2" r="2" fill="#ABB2BF"/>
        <circle cx="10" cy="2" r="2" fill="#ABB2BF"/>
        <circle cx="14" cy="2" r="2" fill="#ABB2BF"/>
        <circle cx="2" cy="22" r="2" fill="#ABB2BF"/>
        <circle cx="6" cy="22" r="2" fill="#ABB2BF"/>
        <circle cx="10" cy="22" r="2" fill="#ABB2BF"/>
        <circle cx="14" cy="22" r="2" fill="#ABB2BF"/>
        <circle cx="2" cy="42" r="2" fill="#ABB2BF"/>
        <circle cx="6" cy="42" r="2" fill="#ABB2BF"/>
        <circle cx="10" cy="42" r="2" fill="#ABB2BF"/>
        <circle cx="14" cy="42" r="2" fill="#ABB2BF"/>
        <circle cx="2" cy="62" r="2" fill="#ABB2BF"/>
        <circle cx="6" cy="62" r="2" fill="#ABB2BF"/>
        <circle cx="10" cy="62" r="2" fill="#ABB2BF"/>
        <circle cx="14" cy="62" r="2" fill="#ABB2BF"/>
    </g>

</svg>
